<svg id="Icon_info_18px" xmlns="http://www.w3.org/2000/svg" width="18" height="18" viewBox="0 0 18 18">
  <circle id="Oval" cx="9" cy="9" r="9" fill="#bbb"/>
  <path id="Fill_1" data-name="Fill 1" d="M3,10.626a.98.98,0,0,1-.664-.248.876.876,0,0,1-.283-.693.9.9,0,0,1,.274-.665A.924.924,0,0,1,3,8.75a.9.9,0,0,1,.66.27.914.914,0,0,1,.268.665.877.877,0,0,1-.281.691A.943.943,0,0,1,3,10.626ZM2.981,7.5a.741.741,0,0,1-.547-.227A.928.928,0,0,1,2.213,6.6a2.658,2.658,0,0,1,.162-.971,2.505,2.505,0,0,1,.431-.721,10.244,10.244,0,0,1,.726-.737c.262-.246.457-.435.578-.564a1.892,1.892,0,0,0,.3-.424,1.071,1.071,0,0,0,.123-.506,1.222,1.222,0,0,0-.372-.9A1.313,1.313,0,0,0,3.2,1.407a1.291,1.291,0,0,0-1.014.37,3.014,3.014,0,0,0-.549,1.091c-.142.5-.414.755-.807.755A.769.769,0,0,1,.24,3.359.836.836,0,0,1,0,2.789,2.542,2.542,0,0,1,.381,1.5,3.022,3.022,0,0,1,1.493.428,3.344,3.344,0,0,1,3.2,0,3.464,3.464,0,0,1,4.8.357a2.679,2.679,0,0,1,1.072.971,2.512,2.512,0,0,1,.378,1.335,2.192,2.192,0,0,1-.216.994,3.03,3.03,0,0,1-.513.736c-.191.2-.529.534-1.065,1.045a4.366,4.366,0,0,0-.341.365,1.429,1.429,0,0,0-.191.287,1.556,1.556,0,0,0-.1.259c-.021.079-.051.216-.1.457A.715.715,0,0,1,2.981,7.5Z" transform="translate(5.875 4)" fill="#fff"/>
</svg>
